<svg width="427" height="427" viewBox="0 0 427 427" fill="none" xmlns="http://www.w3.org/2000/svg">
<path d="M313.069 161.445C312.567 160.316 311.815 159.439 311.188 158.435C310.435 157.432 309.683 156.554 308.805 155.802C307.927 155.05 306.924 154.548 305.67 154.046C304.667 153.796 303.413 153.67 302.159 153.796C299.776 154.046 297.393 154.924 295.261 155.927C290.872 158.059 286.734 160.818 282.721 163.702C278.708 166.587 274.821 169.596 270.933 172.606L260.4 180.757C256.888 183.516 253.252 186.024 249.741 188.657C246.104 191.165 242.467 193.799 238.705 196.056L233.062 199.567L227.168 202.702C223.281 204.96 219.017 206.59 214.879 208.471L208.609 210.728L205.474 211.857L202.088 212.735L195.441 214.365C193.184 214.866 190.927 215.117 188.67 215.619C184.155 216.497 179.641 216.747 175.126 217.124C170.612 217.249 166.097 217.5 161.583 217.374L154.811 217.249L148.039 216.747C147.412 216.747 146.911 216.622 146.284 216.622C172.367 235.432 206.602 242.831 240.21 233.677C276.326 223.895 303.287 197.435 314.824 164.956C314.323 163.953 313.696 162.699 313.069 161.445Z" fill="#21205F"/>
<path d="M317.458 109.152C316.705 109.152 315.451 109.278 314.323 109.654C312.065 110.281 309.683 111.41 307.3 112.664C302.535 115.172 298.02 118.432 293.506 121.567L279.837 131.349C275.197 134.609 270.557 137.744 265.917 140.879C263.535 142.384 261.152 143.763 258.769 145.268C256.387 146.773 253.879 148.027 251.371 149.406C248.988 150.786 246.355 152.04 243.847 153.294C241.339 154.548 238.83 155.802 236.197 156.68C233.564 157.683 231.056 158.937 228.297 159.689L220.146 162.197L211.869 164.078C209.11 164.706 206.351 164.956 203.592 165.333C200.834 165.834 197.949 165.96 195.191 166.085C192.306 166.336 189.547 166.461 186.789 166.336C183.904 166.336 181.145 166.461 178.387 166.336C175.502 166.21 172.744 166.21 169.985 165.96C164.342 165.583 158.824 165.207 153.181 164.58L136.502 162.824C130.985 162.323 125.341 161.821 119.824 161.947C117.065 161.947 114.306 162.197 111.798 162.824C110.544 163.075 109.541 163.451 108.538 164.078C113.052 177.497 120.075 189.41 128.853 199.567C129.354 199.693 129.731 199.693 130.232 199.693C136.251 200.571 142.271 201.323 148.29 201.95C154.309 202.577 160.329 203.079 166.348 203.204C169.358 203.204 172.367 203.329 175.377 203.204C178.387 203.079 181.396 202.953 184.281 202.702C187.165 202.326 190.174 201.95 193.059 201.574L201.837 199.693L210.364 197.059C213.123 196.056 215.882 194.802 218.641 193.673C221.4 192.419 224.033 191.04 226.666 189.786C229.3 188.407 231.933 186.776 234.567 185.397C239.708 182.262 244.724 179.001 249.615 175.49C254.506 171.979 259.396 168.342 264.162 164.706C269.052 161.069 273.943 157.432 279.085 153.921C284.226 150.535 289.618 147.275 295.763 145.519C298.773 144.767 302.159 144.39 305.419 145.017C308.554 145.644 311.689 147.149 313.946 149.406C315.075 150.535 316.204 151.664 317.207 152.918C320.342 138.998 320.593 124.201 317.583 109.403C317.458 109.152 317.458 109.152 317.458 109.152Z" fill="#21205F"/>
<path d="M144.528 152.165C150.673 152.918 156.818 153.545 162.837 154.172C168.982 154.673 175.001 155.049 181.146 155.175C184.155 155.175 187.29 155.175 190.3 155.049C193.31 154.799 196.319 154.673 199.329 154.422C202.339 153.921 205.348 153.67 208.232 153.043L216.885 151.036L225.663 148.152C228.422 147.024 231.056 145.77 233.814 144.641C236.573 143.387 239.207 141.882 241.84 140.503C244.474 139.123 247.107 137.368 249.615 135.863C254.757 132.602 259.647 129.217 264.538 125.58C268.3 122.821 271.937 119.937 275.699 117.052C270.557 118.683 265.541 120.062 260.776 121.442L260.149 121.567C258.895 121.818 257.766 122.069 256.512 122.445C254.004 123.072 251.496 123.699 248.737 124.2L248.236 124.326C247.107 124.451 245.853 124.702 244.724 124.953C242.216 125.454 239.708 125.831 236.95 126.332L236.197 126.458C234.943 126.583 233.689 126.708 232.435 126.834C230.052 127.085 227.67 127.335 225.162 127.586L223.908 127.712L211.744 127.962L199.078 127.085C196.57 126.834 194.062 126.458 191.554 126.081C190.3 125.956 189.171 125.705 187.917 125.58L187.165 125.454C184.531 124.953 182.149 124.451 179.766 123.95C178.512 123.699 177.258 123.448 176.004 123.197L175.502 123.072C172.869 122.445 170.361 121.692 167.978 121.065C166.724 120.689 165.596 120.313 164.342 120.062L163.715 119.937C156.692 117.805 149.419 115.297 141.769 112.413C134.245 109.528 126.972 106.519 120.702 104.011C118.946 103.258 115.936 102.004 112.174 100.374C110.293 99.6216 108.287 98.7438 106.03 97.866C100.512 115.171 99.5087 134.107 103.647 152.918C104.65 152.541 105.653 152.165 106.657 151.914C113.178 150.284 119.573 150.41 125.843 150.786C132.239 150.786 138.383 151.413 144.528 152.165Z" fill="#F7923A"/>
<path d="M183.027 43.4414C195.441 55.8563 221.65 76.4222 290.998 57.4865C271.059 36.1681 242.467 22.8755 210.74 23.0009C197.949 23.0009 185.66 25.2581 174.374 29.3964C175.879 34.0363 178.512 38.927 183.027 43.4414Z" fill="#F7923A"/>
<path d="M309.056 83.6955C307.426 80.4351 305.67 77.3 303.789 74.165C282.471 77.927 263.284 79.9334 246.355 79.9334C210.991 80.0588 185.284 72.1585 169.609 56.107C163.589 49.9623 159.827 43.316 157.445 37.0459C138.634 47.5797 123.335 63.6312 113.805 82.9431C134.747 95.9849 211.242 134.609 309.056 83.6955Z" fill="#F7923A"/>
<path d="M394.409 365.712L376.548 346.311L392.526 327.937L382.426 327.994L368.331 346.426L383.11 365.77L394.409 365.712ZM358.288 365.884L366.334 365.827L366.106 311.846L358.06 311.903L358.288 365.884ZM318.859 365.998H326.904L326.847 350.42C326.79 341.518 331.926 334.271 338.317 334.271C342.539 334.271 345.335 336.896 345.335 340.89L345.449 365.884L353.438 365.827L353.324 339.179C353.267 332.16 347.447 327.538 338.716 327.595C333.752 327.595 329.358 331.361 326.676 337.067L326.163 328.223L318.63 328.28L318.859 365.998ZM285.477 347.281C285.477 339.978 288.901 335.07 294.037 335.013L303.68 334.956L303.737 346.597C303.794 353.958 299.458 359.949 294.151 360.006C288.958 360.063 285.477 354.985 285.477 347.281ZM277.146 347.339C277.203 358.979 283.366 366.74 292.61 366.683C297.517 366.683 301.854 363.088 304.422 357.724L304.878 365.827L312.182 366.226C312.182 366.226 311.84 360.235 311.84 355.784L311.726 328.223L304.707 328.28L303.737 334.5L299.686 328.28L292.439 328.337C283.195 328.451 277.089 335.983 277.146 347.339ZM248.444 319.721H254.379C260.427 319.663 264.536 322.345 264.536 326.34C264.536 331.646 260.484 335.241 254.436 335.298H248.501L248.444 319.721ZM248.558 341.918L256.49 341.861C262.595 341.861 266.647 345.798 266.647 351.846C266.704 356.525 262.653 359.664 256.547 359.664L248.615 359.721L248.558 341.918ZM240.113 366.397L257.859 366.34C268.245 366.283 275.206 360.463 275.149 351.846C275.149 345.056 268.815 339.464 260.941 338.266C267.332 336.383 272.068 331.704 272.068 326.283C272.011 318.294 265.049 312.987 254.664 313.044L239.942 313.101L240.113 366.397ZM199.941 366.568L207.987 366.511L207.93 351.504C207.873 342.317 213.009 334.842 219.4 334.785C223.622 334.728 226.418 337.41 226.475 341.404L226.589 366.397L234.635 366.34L234.521 339.692C234.464 332.674 228.644 328.052 219.913 328.052C214.949 328.109 210.612 331.818 207.93 337.638L207.816 312.474L199.77 312.531L199.941 366.568ZM168.272 364.685C171.467 365.998 176.204 367.196 179.799 367.196C190.241 367.139 195.833 363.031 195.776 355.441C195.719 347.338 188.871 345.284 182.994 343.572C179 342.374 175.69 340.719 175.633 338.323C175.633 336.04 178.258 334.785 183.165 334.728C186.988 334.728 190.412 336.154 193.208 338.323L193.151 329.421C189.956 328.565 186.817 328.223 183.622 328.223C173.522 328.28 168.101 331.875 168.101 338.494C168.158 347.224 175.291 349.393 181.225 351.105C185.334 352.303 188.244 353.787 188.244 356.297C188.244 359.093 185.847 360.634 180.712 360.691C177.002 360.691 172.095 359.036 168.158 355.955L168.272 364.685ZM135.918 347.966C135.861 340.605 139.285 335.755 144.477 335.698L154.121 335.641L154.178 347.281C154.235 354.642 149.898 360.634 144.648 360.634C139.399 360.748 135.975 355.67 135.918 347.966ZM127.587 348.023C127.644 359.664 133.807 367.424 142.994 367.424C147.958 367.367 152.238 363.829 154.805 358.466L155.262 366.568L162.566 366.968C162.566 366.968 162.223 360.976 162.223 356.525L162.109 328.965L155.091 329.022L154.121 335.241L150.069 329.022L142.879 329.079C133.635 329.079 127.53 336.668 127.587 348.023ZM83.6491 367.082L91.6948 367.025L99.6264 341.347L107.786 366.911L115.832 366.854L127.701 329.022L117.487 329.079L111.838 360.292L103.906 329.136L95.4609 329.193L87.7576 360.463L81.6519 329.307L71.4378 329.364L83.6491 367.082ZM47.4718 349.849L55.1752 320.691L63.1638 349.735L47.4718 349.849ZM33.834 367.31L42.8498 367.253L45.817 356.126L64.8757 356.069L67.9 367.139L76.9158 367.082L59.5689 313.9L50.7243 313.957L33.834 367.31Z" fill="#21205F"/>
<path d="M82.2225 313.329C82.5649 313.615 82.7931 313.957 82.7931 314.242C82.7931 314.414 82.5649 314.528 82.1654 314.642C80.4536 314.87 79.1982 314.984 78.4564 314.984C78.057 314.984 77.7146 314.756 77.3152 314.242C77.0869 313.9 76.8587 312.702 76.5734 310.59C76.288 308.251 75.9457 306.71 75.5462 305.911C75.0327 304.77 74.2909 304.142 73.3779 304.142C73.0926 304.142 72.6931 304.2 72.2937 304.371C71.8943 304.827 71.2666 305.968 70.4107 307.851C69.4977 309.849 68.9841 311.389 68.9841 312.588C68.9841 313.158 69.1553 313.444 69.4406 313.558C69.8971 313.729 70.0683 313.843 70.1254 313.957C70.1254 314.128 69.8971 314.242 69.3835 314.299C67.957 314.528 66.4734 314.585 64.8757 314.642C64.0197 314.699 63.6203 314.128 63.5632 313.101C63.5632 311.275 64.5333 308.764 66.5875 305.569C66.9299 304.998 67.8429 303.8 69.2124 301.917C70.4677 300.205 71.2095 299.292 71.3807 299.121H71.3237C70.9813 299.121 70.4677 299.178 69.8401 299.349C69.1553 299.463 68.6417 299.577 68.2994 299.577C67.7288 299.577 67.4435 299.52 67.3293 299.292C67.1581 299.007 67.1011 298.436 67.1011 297.523C67.1011 297.637 67.1011 297.637 67.1581 297.466V296.04C67.1581 294.67 66.9869 293.928 66.6446 293.814C66.1881 293.586 65.9598 293.472 65.9598 293.301C65.9598 293.129 66.7587 292.901 68.4135 292.673C69.7259 292.502 70.4677 292.388 70.5248 292.388C71.4378 292.388 71.8943 292.673 71.8943 293.187C71.8943 293.358 71.9513 293.529 71.9513 293.757V295.013C71.9513 296.496 72.0655 297.752 72.2937 298.665L73.3208 298.55C73.492 298.55 73.9485 298.436 74.5762 298.322C75.1468 298.208 75.5462 298.151 75.8316 298.208C76.231 298.208 76.4022 298.265 76.4022 298.436C76.4022 298.665 75.8886 299.406 74.9186 300.662C73.8914 301.974 73.2067 302.944 72.9785 303.515C72.9214 303.572 72.9784 303.572 73.0926 303.572C73.6061 303.572 74.405 303.401 75.4892 303.115C76.5163 302.773 77.3152 302.659 77.8858 302.659C78.1711 302.659 78.3993 302.659 78.5705 302.716C80.0541 303.229 81.0242 305.968 81.4807 310.876C81.5948 312.074 81.6519 312.759 81.6519 312.816C81.6519 312.873 81.8801 313.044 82.2225 313.329Z" fill="#F7923A"/>
<path d="M98.3709 294.499C98.1997 294.499 98.0285 294.499 97.9715 294.556C97.8573 294.727 97.6862 296.154 97.4008 298.836L97.0014 303.115C97.1726 303.172 97.3438 303.229 97.572 303.229C98.0285 303.229 98.428 303.058 98.8274 302.716C99.7974 301.86 100.254 300.148 100.254 297.637V297.124C100.14 295.355 99.5692 294.499 98.3709 294.499ZM90.3252 297.295C89.8116 298.379 89.5263 299.635 89.5834 301.061C89.5834 301.917 89.6404 302.431 89.6975 302.659C89.8687 303.229 90.2681 303.515 90.8958 303.515C91.5235 303.515 91.98 303.286 92.3223 302.773C92.7788 299.292 93.1212 296.724 93.2924 294.898C91.9229 295.184 90.9528 295.983 90.3252 297.295ZM103.963 301.803C103.107 302.83 102.023 303.515 100.71 303.857C99.7975 304.085 99.1127 304.199 98.6562 304.199C98.3709 304.199 97.7432 304.142 96.7732 303.971C96.1455 308.308 95.8031 310.876 95.689 311.789C95.6319 312.302 95.6319 312.759 95.746 313.044C95.746 313.101 95.8602 313.215 96.0314 313.386C96.2025 313.558 96.2596 313.672 96.2596 313.729C96.2596 313.957 95.9743 314.071 95.4037 314.128C93.8059 314.299 92.8359 314.414 92.5506 314.414C91.4093 314.414 90.8387 314.014 90.8387 313.215C90.8387 312.416 91.0099 310.819 91.4093 308.365C91.8088 305.797 91.98 304.371 91.98 304.085C90.7817 304.542 89.6975 304.77 88.6704 304.77C85.9885 304.77 84.676 303.458 84.676 300.776C84.676 298.55 85.589 296.838 87.415 295.697C88.8986 294.727 90.8387 294.157 93.3494 293.985C94.7189 293.871 96.2596 293.814 97.9144 293.757C98.6562 293.643 99.341 293.586 100.083 293.586C100.768 293.586 101.395 293.643 101.909 293.757C102.936 294.042 103.735 294.556 104.305 295.412C104.876 296.268 105.161 297.181 105.161 298.265C105.218 299.577 104.819 300.776 103.963 301.803Z" fill="#F7923A"/>
<path d="M125.875 294.499C123.764 294.499 122.565 293.871 122.28 292.559L120.34 292.673C120.34 293.015 120.682 293.7 121.481 294.727C122.166 295.64 122.623 296.211 122.794 296.382C123.307 296.896 123.935 297.238 124.62 297.352C125.932 297.923 126.617 299.007 126.617 300.605C126.617 301.061 126.56 301.518 126.503 301.974C125.818 306.368 125.476 309.278 125.476 310.762V310.99C125.533 311.446 125.59 312.017 125.761 312.645C125.932 313.501 126.103 313.9 126.217 313.9C126.275 313.9 126.275 313.843 126.275 313.672C126.275 313.843 125.989 313.957 125.419 314.014L122.794 314.242C121.995 314.242 121.424 313.9 121.139 313.101C121.025 312.816 120.968 312.359 120.968 311.732C120.968 310.99 121.025 310.419 121.082 309.963C121.31 308.137 121.481 306.539 121.652 305.284L121.938 303.115C122.223 300.89 122.337 299.692 122.337 299.577C122.337 298.151 121.881 297.466 120.911 297.523C120.055 297.58 119.313 298.379 118.571 299.92C118.001 301.175 117.658 302.316 117.487 303.344C117.202 305.284 116.973 307.794 116.802 310.819C116.745 312.074 116.859 312.816 117.316 313.101C117.544 313.329 117.715 313.443 117.715 313.501C117.715 313.672 117.43 313.786 116.859 313.843C115.376 314.014 114.463 314.071 114.12 314.071C113.321 314.071 112.808 313.786 112.523 313.158C112.408 312.873 112.351 312.302 112.351 311.332C112.351 309.335 112.523 307.11 112.808 304.656C113.036 302.773 113.607 301.289 114.406 300.148C115.205 299.121 116.46 298.094 118.229 297.238C117.715 296.667 116.802 295.241 115.376 292.844H113.664C113.15 294.328 111.153 295.127 107.729 295.07C107.387 295.07 107.216 295.012 107.216 294.784C107.216 294.727 107.387 294.385 107.786 293.757C108.129 293.072 108.357 292.673 108.357 292.445C108.414 292.388 108.414 292.331 108.414 292.216C108.414 291.988 108.243 291.589 108.015 291.075L107.558 290.276C107.558 289.934 108.414 289.763 110.183 289.763C112.18 289.763 113.321 290.505 113.721 292.102L122.052 291.703C122.451 290.048 123.821 289.192 126.275 289.192C126.446 289.192 126.674 289.192 126.902 289.249C127.929 289.306 128.443 289.42 128.443 289.592C128.443 289.477 128.272 289.763 127.986 290.333C127.701 290.904 127.587 291.418 127.587 291.703V291.988C127.701 292.559 127.986 293.129 128.557 293.7C128.557 293.814 128.386 293.928 128.101 294.042C127.53 294.385 126.788 294.499 125.875 294.499Z" fill="#F7923A"/>
<path d="M155.262 313.672C155.262 314.071 154.634 314.242 153.436 314.242C153.151 314.242 152.751 314.3 152.181 314.357C151.61 314.414 151.21 314.471 150.925 314.471C150.183 314.471 149.67 314.185 149.556 313.615C149.499 313.387 149.442 312.816 149.442 311.789C149.442 310.933 149.442 309.62 149.556 307.852C149.613 305.626 149.67 304.656 149.67 304.884C149.67 304.542 149.727 303.572 149.841 302.088C149.955 300.833 149.955 299.863 149.955 299.121C149.955 295.926 148.985 294.328 147.102 294.328C146.018 294.328 145.276 295.013 144.877 296.496C144.648 297.238 144.477 298.208 144.363 299.406C144.135 302.088 144.021 303.743 144.021 304.428C144.021 306.14 144.306 307.167 144.82 307.509C145.105 307.68 145.276 307.852 145.276 307.909C145.276 308.023 144.705 308.194 143.621 308.365C142.309 308.536 141.567 308.593 141.339 308.593C140.426 308.593 139.912 308.137 139.684 307.224C139.627 306.939 139.57 306.083 139.57 304.713C139.57 300.605 140.198 297.752 141.567 296.211C142.309 295.355 143.564 294.67 145.276 294.043C146.874 293.529 148.3 293.244 149.613 293.244C151.21 293.244 152.409 293.757 153.265 294.841C154.064 295.811 154.406 297.067 154.349 298.665V299.406C154.292 301.632 154.235 303.058 154.178 303.743L154.007 305.74C153.892 307.623 153.835 309.335 153.835 311.047V311.789C153.835 312.074 153.892 312.359 154.064 312.702C154.235 313.101 154.406 313.329 154.634 313.387C155.091 313.387 155.262 313.558 155.262 313.672Z" fill="#F7923A"/>
<path d="M172.438 303.914L171.582 305.512C170.326 307.965 169.299 310.077 168.557 311.96C168.443 312.188 168.443 312.359 168.443 312.53C168.443 312.816 168.557 312.987 168.843 313.101C168.957 313.158 169.071 313.215 169.071 313.329C169.071 313.5 168.843 313.615 168.329 313.672C166.503 313.957 165.362 314.128 164.848 314.128C163.821 314.128 163.194 313.729 163.079 312.873V312.759C163.079 312.302 163.479 311.275 164.335 309.677L165.305 307.965C167.302 304.256 168.329 301.974 168.329 301.175V300.947C168.044 300.719 167.587 300.604 167.017 300.662C166.846 300.662 166.389 300.719 165.704 300.776C165.191 300.833 164.791 300.89 164.563 300.89C164.107 300.89 163.878 300.776 163.878 300.49L164.164 299.863C164.506 299.121 164.734 298.55 164.905 298.322C165.59 297.01 165.99 295.811 166.275 294.67C166.047 293.928 165.476 293.529 164.563 293.529C164.221 293.529 163.878 293.586 163.536 293.757C163.079 293.928 162.851 294.099 162.851 294.328C162.851 295.754 162.338 296.895 161.311 297.751C160.283 298.607 159.085 299.064 157.602 299.064C157.43 299.064 157.259 299.064 157.202 299.064C156.917 299.064 156.746 298.95 156.746 298.836L157.259 297.865C157.602 297.238 157.773 296.781 157.83 296.496C157.83 296.439 157.887 296.325 157.83 296.154C157.83 295.925 157.716 295.583 157.602 295.127C157.43 294.67 157.373 294.328 157.373 294.156C157.373 293.985 157.544 293.814 157.83 293.757C161.253 293.015 163.878 292.673 165.704 292.673C167.702 292.673 169.299 292.958 170.44 293.586C170.897 293.814 171.125 294.271 171.125 294.841C171.125 295.298 170.726 296.439 169.984 298.379C169.527 299.52 169.299 300.091 169.299 300.205C169.299 300.49 169.527 300.604 169.927 300.547C170.269 300.547 170.726 300.49 171.353 300.376C171.981 300.262 172.438 300.205 172.78 300.205C173.522 300.205 173.921 300.433 173.921 300.89C173.636 301.289 173.237 302.316 172.438 303.914Z" fill="#F7923A"/>
<path d="M193.379 310.419C193.265 311.789 193.436 312.531 193.893 312.702C194.064 312.759 194.121 312.816 194.121 312.93C194.121 313.158 193.893 313.272 193.379 313.387C191.553 313.729 190.469 313.9 190.013 313.9C188.928 313.9 188.415 313.444 188.415 312.531V312.188C188.415 311.618 188.643 309.563 189.1 306.14C189.499 303.23 189.67 301.347 189.67 300.376C189.67 299.349 189.499 298.608 189.271 298.151C188.928 297.466 188.244 297.124 187.331 297.124C186.189 297.124 185.219 297.695 184.364 298.893C183.736 299.806 183.279 300.89 182.994 302.202C183.565 302.088 183.964 302.031 184.249 302.031C184.592 302.031 184.763 302.145 184.706 302.374C184.706 302.488 184.706 302.545 184.649 302.602C184.192 303.914 183.907 304.827 183.736 305.284C183.222 307.053 182.823 308.879 182.48 310.762C182.423 311.104 182.423 311.446 182.423 311.789C182.423 312.417 182.595 312.816 182.937 312.93C183.165 313.044 183.279 313.101 183.279 313.215C183.279 313.444 182.88 313.615 182.024 313.729C180.312 313.957 179.399 314.071 179.228 314.071C178.144 314.071 177.63 313.501 177.63 312.245C177.63 311.047 177.858 309.506 178.315 307.737C178.829 305.854 179.399 304.485 180.084 303.515C180.084 303.515 180.084 303.515 180.027 303.515C179.97 303.515 179.913 303.515 179.741 303.515L179.171 303.629C178.657 303.686 178.258 303.743 178.03 303.743C177.801 303.743 177.687 303.686 177.63 303.629C177.573 303.572 177.573 303.401 177.573 303.172C177.573 301.917 178.429 300.434 180.255 298.722C179.913 298.722 179.456 298.779 178.771 298.95C178.144 299.064 177.63 299.178 177.288 299.178C176.945 299.178 176.774 299.121 176.717 299.007C176.546 298.722 176.432 298.037 176.432 297.01V296.439C176.432 296.268 176.432 295.983 176.432 295.64C176.432 295.241 176.489 294.956 176.489 294.784V294.157C176.489 292.73 176.261 291.931 175.861 291.817C175.576 291.76 175.405 291.646 175.405 291.475C175.405 291.304 175.747 291.075 176.489 290.847C178.144 290.391 179.399 290.162 180.255 290.162C180.883 290.162 181.168 290.276 181.225 290.562C181.225 290.676 181.225 290.904 181.225 291.304C181.225 291.532 181.225 292.331 181.168 293.7C181.111 294.613 181.111 295.526 181.111 296.325C181.111 297.124 181.168 297.637 181.282 297.923C181.967 297.58 182.937 297.181 184.192 296.724C185.847 296.154 187.331 295.926 188.643 295.926C189.214 295.926 189.67 295.983 190.013 296.04C191.496 296.325 192.58 296.839 193.208 297.466C193.893 298.208 194.235 299.292 194.235 300.719C194.235 301.575 194.178 302.431 194.121 303.23C193.836 306.368 193.55 308.707 193.379 310.419Z" fill="#F7923A"/>
</svg>
