<svg xmlns="http://www.w3.org/2000/svg" width="872" height="851" viewBox="0 0 872 851" version="1.1"><path d="M 410.500 9.627 C 262.695 21.028, 133.439 112.144, 72.512 247.884 C 55.606 285.548, 45.417 323.265, 39.791 369 C 38.014 383.451, 38.055 440.887, 39.854 455.500 C 41.453 468.492, 46.109 494.924, 48.960 507.194 C 52.006 520.301, 59.889 545.058, 62.226 548.853 C 65.273 553.802, 69.512 555.992, 76.053 555.996 C 81.076 556, 82.460 555.463, 90.553 550.371 C 138.374 520.285, 187.628 497.109, 239 480.520 C 258.726 474.150, 258.620 474.197, 261.963 470.390 C 265.938 465.863, 267.403 460.211, 265.976 454.912 C 261.658 438.875, 259.807 409.484, 261.949 390.976 C 265.773 357.933, 280.057 324.114, 301.006 298.500 C 309.418 288.215, 326.234 272.461, 337.040 264.743 C 347.699 257.130, 370.669 245.328, 382.073 241.605 C 404.565 234.263, 416.310 232.489, 442 232.555 C 461.340 232.605, 464.761 232.878, 476.050 235.271 C 525.480 245.747, 565.321 273.055, 592.829 315.313 C 617.806 353.684, 626.804 403.753, 616.934 449.453 C 614.523 460.613, 614.530 461.397, 617.071 466.647 C 619.795 472.275, 622.730 473.923, 640 479.526 C 694.960 497.359, 740.032 518.625, 794.500 552.423 C 799.999 555.835, 801.005 556.116, 806.543 555.789 C 813.595 555.372, 817.901 552.837, 820.361 547.652 C 824.542 538.842, 833.060 508.006, 836.972 487.522 C 845.027 445.340, 846.106 397.248, 839.955 354.500 C 819.911 215.197, 729.774 97.689, 599.500 41.030 C 566.517 26.685, 529.572 16.789, 489 11.432 C 477.049 9.854, 423.519 8.623, 410.500 9.627 M 408.500 505.096 C 300.918 511.275, 200.266 544.630, 111.500 603.517 C 88.261 618.934, 78.331 626.409, 75.988 630.251 C 74.705 632.356, 74.006 635.282, 74.004 638.559 C 74 644.195, 76.480 648.999, 86.793 663.321 C 93.209 672.232, 97.411 675, 104.526 675 C 109.842 675, 111.431 674.278, 119.174 668.347 C 122.295 665.956, 125.220 664.014, 125.674 664.031 C 126.128 664.048, 127.947 665.960, 129.715 668.281 C 131.484 670.601, 134.184 673.852, 135.715 675.505 C 137.247 677.158, 142.550 682.963, 147.500 688.404 C 158.067 700.021, 179.880 719.728, 195.469 731.743 C 243.226 768.550, 300.410 794.747, 359.500 806.886 C 410.554 817.375, 467.014 817.571, 519.157 807.442 C 611.287 789.544, 694.705 738.988, 755.557 664.171 C 755.705 663.990, 759.491 666.352, 763.972 669.421 C 771.138 674.328, 772.710 675, 777.025 675 C 785.252 675, 788.274 672.805, 796.950 660.527 C 806.611 646.855, 808 644.150, 808 639.010 C 808 631.976, 805.130 628.098, 793.829 619.866 C 759.213 594.649, 727.663 576.092, 689.586 558.555 C 602.290 518.347, 503.824 499.620, 408.500 505.096" stroke="none" fill="#541c1c" fill-rule="evenodd"/><path d="M -0 425.501 L -0 851.002 436.250 850.751 L 872.500 850.500 872.751 425.250 L 873.002 0 436.501 0 L 0 0 -0 425.501 M 0.495 426 C 0.495 660.025, 0.610 755.763, 0.750 638.750 C 0.890 521.738, 0.890 330.263, 0.750 213.250 C 0.610 96.238, 0.495 191.975, 0.495 426 M 410.500 9.627 C 262.695 21.028, 133.439 112.144, 72.512 247.884 C 55.606 285.548, 45.417 323.265, 39.791 369 C 38.014 383.451, 38.055 440.887, 39.854 455.500 C 41.453 468.492, 46.109 494.924, 48.960 507.194 C 52.006 520.301, 59.889 545.058, 62.226 548.853 C 65.273 553.802, 69.512 555.992, 76.053 555.996 C 81.076 556, 82.460 555.463, 90.553 550.371 C 138.374 520.285, 187.628 497.109, 239 480.520 C 258.726 474.150, 258.620 474.197, 261.963 470.390 C 265.938 465.863, 267.403 460.211, 265.976 454.912 C 261.658 438.875, 259.807 409.484, 261.949 390.976 C 265.773 357.933, 280.057 324.114, 301.006 298.500 C 309.418 288.215, 326.234 272.461, 337.040 264.743 C 347.699 257.130, 370.669 245.328, 382.073 241.605 C 404.565 234.263, 416.310 232.489, 442 232.555 C 461.340 232.605, 464.761 232.878, 476.050 235.271 C 525.480 245.747, 565.321 273.055, 592.829 315.313 C 617.806 353.684, 626.804 403.753, 616.934 449.453 C 614.523 460.613, 614.530 461.397, 617.071 466.647 C 619.795 472.275, 622.730 473.923, 640 479.526 C 694.960 497.359, 740.032 518.625, 794.500 552.423 C 799.999 555.835, 801.005 556.116, 806.543 555.789 C 813.595 555.372, 817.901 552.837, 820.361 547.652 C 824.542 538.842, 833.060 508.006, 836.972 487.522 C 845.027 445.340, 846.106 397.248, 839.955 354.500 C 819.911 215.197, 729.774 97.689, 599.500 41.030 C 566.517 26.685, 529.572 16.789, 489 11.432 C 477.049 9.854, 423.519 8.623, 410.500 9.627 M 408.500 505.096 C 300.918 511.275, 200.266 544.630, 111.500 603.517 C 88.261 618.934, 78.331 626.409, 75.988 630.251 C 74.705 632.356, 74.006 635.282, 74.004 638.559 C 74 644.195, 76.480 648.999, 86.793 663.321 C 93.209 672.232, 97.411 675, 104.526 675 C 109.842 675, 111.431 674.278, 119.174 668.347 C 122.295 665.956, 125.220 664.014, 125.674 664.031 C 126.128 664.048, 127.947 665.960, 129.715 668.281 C 131.484 670.601, 134.184 673.852, 135.715 675.505 C 137.247 677.158, 142.550 682.963, 147.500 688.404 C 158.067 700.021, 179.880 719.728, 195.469 731.743 C 243.226 768.550, 300.410 794.747, 359.500 806.886 C 410.554 817.375, 467.014 817.571, 519.157 807.442 C 611.287 789.544, 694.705 738.988, 755.557 664.171 C 755.705 663.990, 759.491 666.352, 763.972 669.421 C 771.138 674.328, 772.710 675, 777.025 675 C 785.252 675, 788.274 672.805, 796.950 660.527 C 806.611 646.855, 808 644.150, 808 639.010 C 808 631.976, 805.130 628.098, 793.829 619.866 C 759.213 594.649, 727.663 576.092, 689.586 558.555 C 602.290 518.347, 503.824 499.620, 408.500 505.096" stroke="none" fill="#fbfbfb" fill-rule="evenodd"/></svg>