<svg xmlns="http://www.w3.org/2000/svg" width="474" height="462" viewBox="0 0 474 462" version="1.1"><path d="M 224 5.053 C 166.466 8.700, 110.377 37.297, 71.926 82.588 C 31.995 129.620, 13.494 194.442, 22.574 255.500 C 25.758 276.911, 31.623 296.772, 35.713 299.989 C 39.309 302.818, 43.869 302.516, 49.079 299.105 C 68.752 286.225, 100.619 270.966, 126.443 262.062 C 141.009 257.039, 143.824 255.549, 144.603 252.447 C 144.950 251.063, 144.445 245.119, 143.480 239.239 C 141.312 226.018, 141.899 208.966, 144.884 198.473 C 153.771 167.236, 179.076 140.693, 209 131.223 C 220.989 127.428, 226.428 126.605, 239.500 126.607 C 253.977 126.609, 263.768 128.359, 275.660 133.071 C 298.916 142.285, 320.293 163.337, 329.951 186.536 C 336.684 202.710, 338.811 224.232, 335.435 242.027 C 332.951 255.122, 333.278 255.490, 353.500 262.344 C 376.820 270.247, 398.586 280.421, 422.197 294.454 C 443.867 307.333, 445.968 305.825, 453.607 271.916 C 462.585 232.060, 460.482 191.847, 447.390 153 C 442.699 139.082, 431.762 116.888, 423.488 104.500 C 377.956 36.321, 304.940 -0.078, 224 5.053 M 221 273.952 C 168.255 277.184, 114.814 293.943, 69.637 321.420 C 56.019 329.703, 42.307 339.558, 40.998 342.004 C 39.101 345.549, 39.959 349.627, 43.858 355.595 C 51.393 367.129, 55.600 368.969, 63.254 364.077 L 68.008 361.039 79.754 373.143 C 131.580 426.550, 199.932 450.569, 271.498 440.523 C 308.242 435.365, 341.611 420.762, 376.500 394.571 C 384.674 388.435, 403.719 370.165, 408.192 364.170 L 410.677 360.839 415.534 363.920 C 423.349 368.876, 426.670 368.070, 432.837 359.720 C 441.334 348.214, 441.674 344.445, 434.750 338.518 C 426.983 331.870, 406.604 319.037, 390 310.339 C 339.544 283.906, 277.293 270.503, 221 273.952" stroke="none" fill="#541b1b" fill-rule="evenodd"/></svg>