<svg xmlns="http://www.w3.org/2000/svg" width="510" height="489" viewBox="0 0 510 489" version="1.1"><path d="M 239.500 0.663 C 237.850 0.863, 230.650 1.726, 223.500 2.581 C 152.332 11.089, 84.443 55.928, 47.236 119 C 25.926 155.122, 14.801 194.147, 13.312 238 C 12.437 263.769, 15.104 285.852, 22.188 311.500 C 28.801 335.441, 32.699 337.563, 50.352 326.830 C 75.834 311.336, 105.803 297.518, 136 287.340 C 152.409 281.809, 153.994 279.577, 151.617 265.343 C 150.805 260.479, 149.858 253.350, 149.513 249.500 C 147.654 228.763, 156.497 200.166, 170.543 181.490 C 184.235 163.286, 202.467 150.507, 225.500 142.970 C 234.649 139.977, 236.849 139.658, 251.345 139.227 C 274.123 138.550, 285.042 140.646, 302.500 149.047 C 314.741 154.938, 322.723 160.561, 331.580 169.535 C 344.782 182.909, 355.396 201.203, 359.989 218.500 C 363.161 230.446, 363.699 249.467, 361.254 263.173 C 359.112 275.176, 359.662 278.974, 364 282.134 C 365.375 283.136, 373.025 286.234, 381 289.019 C 412.046 299.860, 437.594 311.704, 462.636 326.864 C 480.520 337.691, 483.856 335.544, 490.991 308.613 C 497.601 283.664, 498.494 276.128, 498.475 245.500 C 498.459 220.587, 498.206 216.177, 496.179 205.500 C 485.284 148.110, 464.124 107.098, 425.795 69.088 C 390.324 33.912, 343.888 10.743, 293.500 3.080 C 275.935 0.409, 250.859 -0.713, 239.500 0.663 M 233.500 298.505 C 232.400 298.701, 225.875 299.386, 219 300.027 C 186.970 303.013, 143.255 314.004, 116.406 325.821 C 82.186 340.881, 39.261 367.191, 35.277 375.546 C 34.258 377.683, 33.960 379.973, 34.398 382.306 C 35.179 386.468, 43.775 400.029, 47.117 402.369 C 50.963 405.063, 58.019 404.493, 62.688 401.111 L 66.676 398.222 77.396 409.596 C 115.821 450.363, 162.624 475.875, 216.012 485.155 C 227.994 487.238, 232.571 487.497, 257 487.470 C 292.303 487.432, 303.746 485.714, 333 476.055 C 357.400 467.999, 380.849 455.634, 403.204 439.036 C 413.897 431.097, 431.536 414.408, 440.619 403.637 L 445.564 397.773 450.177 400.887 C 455.469 404.458, 461.489 405.036, 465.568 402.364 C 466.941 401.464, 470.300 397.095, 473.033 392.655 C 477.041 386.141, 478 383.722, 478 380.120 C 478 376.142, 477.515 375.193, 473.540 371.384 C 468.633 366.682, 448.301 353.018, 435 345.483 C 400.221 325.781, 363.924 312.233, 327 305.171 C 299.308 299.875, 289.226 298.853, 261 298.483 C 246.975 298.299, 234.600 298.309, 233.500 298.505" stroke="none" fill="#ccc5c5" fill-rule="evenodd"/></svg>