<svg id="svg" xmlns="http://www.w3.org/2000/svg" xmlns:xlink="http://www.w3.org/1999/xlink" width="400" height="158.89029003783102" viewBox="0, 0, 400,158.89029003783102"><g id="svgg"><path id="path0" d="M66.078 12.647 C 26.957 19.573,1.392 60.267,12.388 98.108 C 14.244 104.496,16.133 105.903,19.594 103.474 C 24.514 100.022,35.570 94.724,43.087 92.216 C 49.412 90.107,49.053 90.666,48.663 83.517 C 47.744 66.672,56.796 53.808,71.732 50.737 C 92.193 46.528,108.801 61.418,107.769 83.046 C 107.411 90.566,107.364 90.456,111.321 91.527 C 116.871 93.028,128.103 98.100,134.734 102.099 C 140.855 105.790,141.904 105.336,143.952 98.108 C 157.584 50.010,115.556 3.888,66.078 12.647 M168.170 40.801 C 165.027 41.610,162.238 43.587,160.676 46.113 L 159.142 48.594 158.984 64.759 C 158.804 83.008,158.635 82.219,162.729 82.219 C 166.733 82.219,166.456 83.402,166.456 66.251 C 166.456 48.227,166.805 46.910,171.573 46.910 C 176.026 46.910,176.539 48.972,176.542 66.907 C 176.545 83.325,176.276 82.219,180.273 82.219 C 184.062 82.219,184.188 81.933,184.013 73.756 L 183.859 66.581 187.202 66.582 C 191.471 66.583,191.899 66.124,191.426 62.056 L 191.074 59.016 187.466 59.017 L 183.859 59.019 184.028 55.744 C 184.571 45.202,177.384 38.430,168.170 40.801 M200.971 40.798 C 198.274 41.494,195.512 43.364,193.947 45.552 L 192.434 47.667 192.277 56.832 C 192.104 66.949,192.396 68.237,195.547 71.229 C 198.148 73.698,204.620 75.085,208.197 73.940 C 209.305 73.585,209.332 73.666,209.332 77.332 C 209.332 81.867,209.733 82.334,213.452 82.121 L 216.141 81.967 216.141 73.140 L 216.141 64.313 213.211 64.373 C 210.758 64.424,210.048 64.656,208.854 65.801 C 205.847 68.681,200.999 68.285,199.902 65.069 C 199.169 62.920,199.060 52.887,199.743 50.428 C 201.036 45.773,208.224 45.958,209.108 50.670 L 209.444 52.459 212.919 52.459 L 216.393 52.459 216.393 49.976 C 216.393 43.880,208.115 38.953,200.971 40.798 M236.404 41.172 C 230.196 43.079,228.384 47.048,228.604 58.260 L 228.752 65.826 232.030 65.826 L 235.309 65.826 235.561 58.235 C 235.917 47.517,239.395 43.733,244.490 48.519 L 245.649 49.608 245.649 65.392 C 245.649 83.181,245.423 82.219,249.610 82.219 C 253.480 82.219,253.216 83.458,253.216 65.347 C 253.216 49.300,253.200 49.058,252.042 46.864 C 249.260 41.591,242.750 39.222,236.404 41.172 M259.496 41.063 C 256.207 42.495,254.467 45.899,254.818 50.211 L 254.981 52.207 258.611 52.354 L 262.241 52.502 262.394 49.832 L 262.547 47.163 266.504 47.014 C 275.188 46.689,274.236 50.439,263.556 58.624 C 260.117 61.259,260.025 61.389,260.025 63.578 L 260.025 65.826 264.439 65.972 L 268.852 66.117 268.852 73.862 C 268.852 82.464,268.749 82.219,272.383 82.219 C 276.095 82.219,275.914 82.802,275.914 70.850 C 275.914 59.439,275.680 58.459,273.271 59.813 C 272.921 60.009,273.902 58.940,275.450 57.438 C 278.495 54.482,278.942 53.335,278.939 48.487 C 278.935 42.436,275.802 40.342,266.802 40.373 C 263.156 40.385,260.468 40.639,259.496 41.063 M282.303 40.689 C 281.385 41.607,281.953 51.541,282.939 51.799 C 283.897 52.049,283.898 52.074,282.941 53.643 C 281.036 56.767,282.140 63.384,284.733 64.379 C 285.310 64.601,285.130 65.011,283.930 66.211 C 281.733 68.407,281.463 69.469,281.463 75.893 C 281.463 82.332,281.392 82.219,285.438 82.219 C 288.815 82.219,289.028 81.833,289.037 75.687 C 289.041 72.760,289.211 70.116,289.415 69.811 C 290.044 68.869,291.913 68.096,293.561 68.096 L 295.132 68.096 294.981 65.195 L 294.830 62.295 292.614 61.999 C 286.995 61.250,287.995 55.485,293.743 55.485 C 298.132 55.485,298.068 55.282,298.225 69.639 L 298.361 81.967 300.849 82.125 C 302.218 82.211,303.874 82.148,304.530 81.983 L 305.722 81.684 305.572 68.378 L 305.422 55.073 303.856 53.135 C 301.308 49.985,299.520 49.216,294.073 48.929 L 289.281 48.676 289.451 45.572 C 289.697 41.073,289.161 40.353,285.564 40.353 C 283.956 40.353,282.488 40.504,282.303 40.689 M159.500 89.911 C 159.028 90.480,158.907 94.058,159.008 104.475 L 159.142 118.285 167.304 118.285 C 176.372 118.285,177.009 118.087,179.445 114.507 C 181.442 111.573,180.556 105.751,177.896 104.327 L 176.857 103.771 177.888 102.937 C 181.828 99.746,180.571 92.865,175.649 90.674 C 172.472 89.260,160.509 88.695,159.500 89.911 M183.965 89.595 C 183.062 90.498,183.575 112.189,184.543 114.005 C 187.998 120.493,199.848 120.567,203.635 114.124 C 205.038 111.738,205.045 111.680,205.207 101.231 C 205.396 89.080,205.420 89.159,201.558 89.384 L 198.991 89.533 198.739 99.898 C 198.435 112.381,198.225 112.989,194.199 112.989 C 190.174 112.989,189.963 112.382,189.660 99.898 L 189.407 89.533 186.866 89.385 C 185.468 89.303,184.163 89.397,183.965 89.595 M208.953 89.615 C 208.470 89.810,208.323 93.208,208.323 104.203 L 208.323 118.537 211.602 118.537 L 214.880 118.537 214.880 110.397 L 214.880 102.256 219.770 110.397 L 224.660 118.537 227.596 118.537 L 230.532 118.537 230.399 104.035 L 230.265 89.533 227.930 89.382 C 224.247 89.144,224.116 89.458,224.211 98.310 C 224.256 102.497,224.243 105.867,224.183 105.799 C 224.123 105.731,222.085 102.383,219.655 98.361 C 213.884 88.806,212.917 88.016,208.953 89.615 M234.678 89.615 C 234.195 89.810,234.048 93.208,234.048 104.203 L 234.048 118.537 237.314 118.537 L 240.580 118.537 240.719 110.593 L 240.858 102.648 245.589 110.615 L 250.320 118.582 253.407 118.433 L 256.494 118.285 256.629 104.475 C 256.778 89.131,256.808 89.277,253.532 89.289 C 250.210 89.301,250.230 89.251,250.076 98.018 L 249.937 105.955 245.921 99.257 C 239.695 88.873,238.679 88.001,234.678 89.615 M268.068 89.656 C 267.212 90.270,258.764 115.815,258.764 117.788 C 258.764 118.373,259.474 118.537,262.001 118.537 L 265.237 118.537 265.951 116.393 L 266.664 114.250 271.477 114.106 L 276.290 113.962 276.866 116.250 L 277.442 118.537 280.713 118.537 C 284.618 118.537,284.733 118.212,282.783 112.640 C 282.121 110.751,280.296 105.120,278.726 100.126 C 277.156 95.132,275.687 90.706,275.462 90.290 C 275.016 89.466,269.046 88.953,268.068 89.656 M294.451 89.563 C 294.243 89.778,294.073 96.401,294.073 104.280 L 294.073 118.607 302.109 118.446 C 309.327 118.301,310.289 118.178,311.566 117.230 C 315.953 113.975,316.595 108.053,312.930 104.655 C 311.781 103.591,311.714 103.378,312.439 103.100 C 316.460 101.557,315.212 93.100,310.612 90.729 C 308.364 89.569,295.354 88.631,294.451 89.563 M324.454 89.912 C 324.172 90.259,322.765 94.288,321.326 98.865 C 319.886 103.443,317.933 109.561,316.984 112.463 C 316.035 115.364,315.259 117.917,315.259 118.137 C 315.259 118.357,316.818 118.537,318.724 118.537 L 322.189 118.537 322.825 116.267 L 323.460 113.997 328.145 113.997 L 332.829 113.997 333.542 116.141 L 334.254 118.285 337.619 118.434 C 341.628 118.612,341.568 118.796,339.504 112.622 C 338.690 110.188,336.728 104.111,335.143 99.117 C 333.559 94.124,332.012 89.871,331.705 89.667 C 330.752 89.034,325.009 89.228,324.454 89.912 M343.632 89.615 C 343.148 89.810,343.001 93.208,343.001 104.203 L 343.001 118.537 346.267 118.537 L 349.534 118.537 349.672 110.402 L 349.811 102.267 354.603 110.276 L 359.395 118.285 362.547 118.435 L 365.700 118.585 365.700 104.239 C 365.700 88.326,365.918 89.274,362.254 89.289 C 359.200 89.302,359.183 89.348,359.030 97.878 L 358.890 105.675 354.492 98.286 C 348.949 88.974,347.697 87.975,343.632 89.615 M369.861 89.615 C 369.378 89.810,369.231 93.208,369.231 104.203 L 369.231 118.537 372.509 118.537 L 375.788 118.537 375.788 114.026 C 375.788 110.067,375.927 109.356,376.923 108.220 L 378.058 106.926 381.534 112.732 L 385.010 118.537 388.470 118.537 C 392.791 118.537,392.810 118.800,387.937 111.031 C 385.741 107.530,383.668 104.056,383.331 103.312 C 382.643 101.791,382.234 102.498,388.020 95.198 C 392.402 89.668,392.373 89.281,387.577 89.281 C 385.008 89.281,384.796 89.462,379.389 96.276 L 376.040 100.496 375.895 95.285 C 375.801 91.894,375.537 89.938,375.139 89.685 C 374.467 89.259,370.864 89.211,369.861 89.615 M67.844 95.367 C 50.038 97.779,36.420 102.567,23.707 110.884 C 15.138 116.491,14.591 117.498,17.781 121.800 C 19.886 124.640,23.090 125.300,24.409 123.166 C 24.571 122.904,26.667 124.696,29.067 127.149 C 56.355 155.035,100.266 155.020,127.341 127.116 L 131.354 122.981 132.778 123.823 C 136.985 126.308,142.771 118.488,139.038 115.362 C 122.226 101.284,90.317 92.322,67.844 95.367 M172.721 96.298 C 175.025 98.844,172.728 101.367,168.096 101.380 L 165.448 101.387 165.448 98.361 L 165.448 95.334 168.648 95.334 C 171.159 95.334,172.037 95.542,172.721 96.298 M307.383 95.987 C 310.205 98.050,307.370 101.367,302.774 101.380 L 300.126 101.387 300.126 98.361 L 300.126 95.334 303.308 95.334 C 305.116 95.334,306.876 95.616,307.383 95.987 M329.659 102.900 C 330.414 105.536,331.139 107.976,331.270 108.323 C 331.445 108.787,330.646 108.953,328.247 108.953 L 324.986 108.953 326.554 103.453 C 327.416 100.428,328.158 97.988,328.203 98.031 C 328.248 98.073,328.903 100.265,329.659 102.900 M273.854 106.053 L 274.759 108.953 271.553 108.953 C 267.920 108.953,268.005 109.100,269.357 105.170 C 269.912 103.558,270.366 101.948,270.366 101.593 C 270.366 101.239,270.626 100.309,270.944 99.528 L 271.521 98.108 272.236 100.631 C 272.628 102.018,273.357 104.458,273.854 106.053 M173.230 107.728 C 175.706 110.205,173.323 112.989,168.726 112.989 L 165.448 112.989 165.448 109.962 L 165.448 106.936 168.943 106.936 C 171.447 106.936,172.662 107.160,173.230 107.728 M307.908 107.728 C 310.385 110.205,308.001 112.989,303.405 112.989 L 300.126 112.989 300.126 109.962 L 300.126 106.936 303.621 106.936 C 306.126 106.936,307.340 107.160,307.908 107.728 " stroke="none" fill="#000000" fill-rule="evenodd"></path></g></svg>